<svg viewBox="0 0 500 500" xmlns="http://www.w3.org/2000/svg">
  <path d="M 120.863 202.401 L 175.603 140.089 L 162.636 140.089 L 115.085 194.182 L 77.134 140.089 L 33.352 140.089 L 90.753 221.895 L 33.352 287.231 L 46.319 287.231 L 96.502 230.094 L 136.589 287.231 L 180.371 287.231 M 50.999 149.665 L 70.92 149.665 L 162.626 278.125 L 142.7 278.125" style=""/>
  <g>
    <path id="XMLID_222_" d="M 275.235 207.958 L 222.617 155.341 C 220.562 153.286 217.23 153.286 215.175 155.341 C 213.121 157.396 213.121 160.728 215.176 162.783 L 264.073 211.68 L 215.175 260.579 C 213.121 262.634 213.121 265.965 215.176 268.02 C 216.203 269.047 217.549 269.561 218.896 269.561 C 220.243 269.561 221.589 269.047 222.617 268.02 L 275.235 215.4 C 276.222 214.413 276.777 213.075 276.777 211.679 C 276.777 210.284 276.222 208.945 275.235 207.958 Z" style="stroke-width: 50px;"/>
    <path d="M 455.725 168.158 C 450.082 170.797 444.015 172.575 437.649 173.376 C 444.15 169.275 449.141 162.776 451.487 155.034 C 445.409 158.831 438.672 161.592 431.5 163.079 C 425.766 156.636 417.577 152.608 408.527 152.608 C 388.206 152.608 373.274 172.58 377.864 193.315 C 351.713 191.935 328.522 178.736 312.995 158.676 C 304.75 173.577 308.721 193.072 322.731 202.945 C 317.579 202.768 312.721 201.281 308.484 198.796 C 308.138 214.156 318.589 228.526 333.726 231.723 C 329.295 232.991 324.444 233.286 319.51 232.289 C 323.512 245.461 335.131 255.042 348.913 255.313 C 335.683 266.242 319.012 271.123 302.315 269.048 C 316.244 278.455 332.793 283.944 350.563 283.944 C 408.998 283.944 442.015 231.953 440.02 185.321 C 446.17 180.642 451.507 174.804 455.725 168.158 Z" style=""/>
  </g>
</svg>